<?xml version="1.0" standalone="no"?>
<!DOCTYPE svg PUBLIC "-//W3C//DTD SVG 20010904//EN"
 "http://www.w3.org/TR/2001/REC-SVG-20010904/DTD/svg10.dtd">
<svg version="1.0" xmlns="http://www.w3.org/2000/svg"
 width="1200.000000pt" height="1200.000000pt" viewBox="0 0 1200.000000 1200.000000"
 preserveAspectRatio="xMidYMid meet">
<metadata>
Created by potrace 1.11, written by Peter Selinger 2001-2013
</metadata>
<g transform="translate(0.000000,1200.000000) scale(0.100000,-0.100000)"
fill="#000000" stroke="none">
<path d="M0 6000 l0 -6000 6000 0 6000 0 0 6000 0 6000 -6000 0 -6000 0 0
-6000z m6172 2054 c124 -37 249 -121 328 -219 34 -44 48 -55 65 -51 152 42
353 -22 485 -154 98 -97 137 -184 165 -362 4 -28 14 -42 38 -57 18 -11 61 -49
95 -85 79 -82 128 -181 144 -292 39 -269 -153 -545 -423 -609 -57 -13 -369
-23 -369 -11 0 2 39 41 86 87 l85 84 80 7 c147 13 264 89 325 214 26 54 29 68
29 164 0 96 -2 110 -30 163 -37 73 -125 156 -196 186 l-54 21 0 98 c0 84 -4
105 -27 154 -83 177 -273 258 -470 198 -42 -13 -74 -18 -76 -12 -10 31 -79
133 -115 170 -94 97 -202 142 -337 142 -139 0 -239 -42 -338 -142 -66 -66
-110 -154 -124 -246 l-11 -70 -45 -12 c-131 -33 -216 -125 -237 -258 l-7 -43
-41 8 c-23 4 -87 8 -142 8 -81 0 -109 -4 -148 -22 -66 -30 -151 -115 -184
-182 -25 -50 -28 -67 -28 -161 0 -96 3 -110 29 -165 60 -121 178 -200 320
-213 l77 -7 -85 -84 -84 -84 -70 22 c-187 60 -326 219 -368 421 -70 331 184
652 525 665 l83 3 28 49 c34 59 114 136 173 164 39 19 46 28 61 78 71 230 273
409 508 450 69 13 212 5 280 -15z m-2272 -1154 l0 -150 -1350 0 -1350 0 0 150
0 150 1350 0 1350 0 0 -150z m6900 0 l0 -150 -1350 0 -1350 0 0 150 0 150
1350 0 1350 0 0 -150z m-5345 -715 l-450 -443 -65 65 -65 65 450 443 450 444
65 -65 65 -65 -450 -444z m759 286 c-88 -85 -291 -286 -452 -446 l-293 -290
-64 67 -64 68 452 445 452 445 64 -66 64 -67 -159 -156z m564 216 l62 -63
-132 -129 c-73 -71 -276 -271 -451 -444 l-319 -314 -65 65 -65 65 313 309
c473 466 583 574 589 574 3 0 34 -28 68 -63z m-1998 -2277 c0 -128 6 -160 25
-130 4 6 25 20 48 32 59 31 175 31 234 0 53 -28 98 -83 112 -138 6 -23 11
-129 11 -233 l0 -191 -79 0 -79 0 -4 178 c-4 197 -12 229 -68 252 -48 20 -117
8 -152 -28 -39 -38 -47 -82 -48 -259 l0 -143 -80 0 -80 0 0 400 0 400 80 0 80
0 0 -140z m4060 0 c0 -128 6 -160 25 -130 4 6 25 20 48 32 59 31 175 31 234 0
53 -28 98 -83 112 -138 6 -23 11 -129 11 -233 l0 -191 -79 0 -79 0 -4 178 c-4
197 -12 229 -68 252 -48 20 -117 8 -152 -28 -39 -38 -47 -82 -48 -259 l0 -143
-80 0 -80 0 0 400 0 400 80 0 80 0 0 -140z m-6901 99 c62 -10 161 -45 161 -57
0 -4 -10 -32 -22 -65 -17 -42 -27 -57 -38 -53 -8 3 -42 15 -75 26 -84 31 -202
26 -239 -9 -27 -26 -33 -59 -16 -91 10 -18 62 -38 215 -80 155 -42 211 -96
209 -205 0 -34 -8 -73 -17 -91 -25 -47 -89 -100 -148 -120 -72 -25 -230 -25
-314 0 -76 23 -135 53 -135 69 0 6 11 35 24 64 l25 52 68 -31 c86 -40 228 -52
282 -24 42 22 59 58 42 90 -17 31 -60 50 -182 81 -116 30 -162 51 -201 92 -34
36 -48 73 -48 129 0 113 73 190 210 220 70 16 119 16 199 3z m3946 -254 c44
-137 83 -257 86 -265 3 -8 46 105 95 253 l89 267 80 0 81 0 84 -265 c46 -146
86 -265 89 -265 4 0 44 118 91 263 l85 262 84 3 c64 2 82 0 78 -10 -2 -7 -58
-178 -123 -381 l-119 -367 -93 2 -94 3 -81 252 c-45 138 -85 249 -88 245 -4
-4 -43 -118 -89 -254 l-82 -248 -92 0 -92 0 -122 374 c-67 205 -122 377 -122
380 0 4 39 5 87 4 l88 -3 80 -250z m2510 135 l0 -65 73 -3 72 -3 0 -64 0 -65
-73 0 -73 0 1 -135 c2 -117 4 -138 21 -156 16 -18 27 -20 71 -16 l52 5 21 -54
c11 -30 20 -57 20 -59 0 -8 -104 -35 -135 -35 -60 0 -132 29 -164 65 -42 48
-51 90 -51 248 l0 137 -45 0 -45 0 0 65 0 65 45 0 45 0 0 70 0 71 83 -3 82 -3
0 -65z m-5729 -65 c30 -9 63 -28 83 -49 l34 -35 38 34 c37 33 118 65 165 65
95 0 175 -46 217 -124 20 -38 22 -58 25 -253 l4 -213 -86 0 -86 0 0 180 c0
201 -6 228 -60 250 -38 16 -105 8 -132 -17 -41 -36 -48 -73 -48 -248 l0 -165
-80 0 -80 0 0 158 c-1 181 -9 228 -45 260 -31 26 -91 30 -135 7 -55 -28 -64
-62 -68 -252 l-4 -173 -79 0 -79 0 0 290 0 290 79 0 80 0 3 -31 3 -31 28 22
c33 26 98 48 143 49 17 1 53 -6 80 -14z m1092 -15 c58 -26 79 -44 105 -95 20
-37 22 -59 25 -252 l4 -213 -76 0 -76 0 0 30 c0 33 -11 38 -31 14 -44 -54
-187 -67 -271 -26 -125 62 -128 228 -6 291 40 20 69 25 171 30 l123 6 -8 33
c-14 52 -58 74 -143 70 -45 -2 -85 -11 -111 -24 l-42 -20 -26 54 c-31 62 -28
71 38 96 106 40 240 43 324 6z m670 5 c29 -9 55 -22 58 -30 3 -7 -6 -35 -20
-63 l-25 -49 -53 18 c-67 23 -165 25 -196 3 -29 -20 -29 -61 1 -74 12 -6 66
-19 120 -29 151 -30 199 -68 199 -158 0 -82 -31 -126 -117 -165 -90 -40 -310
-26 -380 26 -20 14 -20 15 7 69 l26 54 69 -23 c110 -38 223 -30 238 17 11 34
-13 48 -124 69 -123 23 -168 43 -198 89 -29 42 -30 112 -4 161 22 42 90 87
151 100 59 12 182 5 248 -15z m2859 -10 c107 -53 160 -154 154 -292 l-1 -23
-221 0 -221 0 19 -31 c34 -59 65 -74 156 -74 69 0 87 4 113 22 l32 23 42 -46
42 -46 -22 -23 c-42 -44 -116 -69 -210 -69 -104 -1 -174 22 -237 78 -71 62
-88 104 -88 216 0 107 11 138 74 203 91 97 244 122 368 62z m631 5 c58 -26 79
-44 105 -95 20 -37 22 -59 25 -252 l4 -213 -76 0 -76 0 0 30 c0 33 -11 38 -31
14 -44 -54 -187 -67 -271 -26 -125 62 -128 228 -6 291 40 20 69 25 171 30
l123 6 -8 33 c-14 52 -58 74 -143 70 -45 -2 -85 -11 -111 -24 l-42 -20 -26 54
c-31 62 -28 71 38 96 106 40 240 43 324 6z m1929 -5 c107 -53 160 -154 154
-292 l-1 -23 -221 0 -221 0 19 -31 c34 -59 65 -74 156 -74 69 0 87 4 113 22
l32 23 42 -46 42 -46 -22 -23 c-42 -44 -116 -69 -210 -69 -104 -1 -174 22
-237 78 -71 62 -88 104 -88 216 0 107 11 138 74 203 91 97 244 122 368 62z
m633 -40 l0 -75 -42 0 c-57 0 -108 -27 -133 -70 -17 -31 -20 -56 -24 -202 l-3
-168 -79 0 -79 0 0 290 0 290 80 0 80 0 0 -37 0 -36 23 20 c39 36 97 59 155
62 21 1 22 -3 22 -74z"/>
<path d="M3525 3965 c-51 -50 -12 -115 70 -115 80 0 135 47 135 115 0 25 0 25
-90 25 -83 0 -93 -2 -115 -25z"/>
<path d="M7073 4194 c-33 -17 -55 -43 -67 -81 l-7 -23 146 0 146 0 -7 23 c-26
84 -127 122 -211 81z"/>
<path d="M7685 3965 c-51 -50 -12 -115 70 -115 80 0 135 47 135 115 0 25 0 25
-90 25 -83 0 -93 -2 -115 -25z"/>
<path d="M9633 4194 c-33 -17 -55 -43 -67 -81 l-7 -23 146 0 146 0 -7 23 c-26
84 -127 122 -211 81z"/>
</g>
</svg>
